# Blender 3.6.3
# www.blender.org
mtllib road creation.mtl
o finished
v -4.875000 0.000000 87.125000
v -7.875000 0.200000 50.125000
v -4.875000 0.200000 87.125000
v -7.875000 0.000000 59.875000
v -7.875000 0.200000 87.125000
v -7.875000 0.000000 50.125000
v -47.250000 0.000000 50.125000
v -7.875000 0.200000 62.875000
v -47.250000 0.000000 59.875000
v -47.250000 0.200000 59.875000
v -47.250000 0.200000 47.125000
v -47.250000 0.200000 62.875000
v -4.875000 0.200000 47.125000
v -4.875000 0.000000 0.000000
v -4.875000 0.200000 62.875000
v -4.875000 0.200000 0.000000
v -4.875000 0.000000 47.125000
v -7.875000 0.200000 0.000000
v -4.875000 0.000000 62.875000
v -4.875000 0.200000 59.875000
v -4.875000 0.200000 50.125000
v -7.875000 0.200000 59.875000
v -7.875000 0.200000 47.125000
v -4.875000 0.000000 59.875000
v -4.875000 0.000000 50.125000
v -47.250000 0.200000 50.125000
v 4.875000 0.000000 87.125000
v 4.875000 0.200000 87.125000
v 7.875000 0.000000 59.875000
v 7.875000 0.200000 87.125000
v 7.875000 0.000000 50.125000
v 47.250000 0.000000 50.125000
v 7.875000 0.200000 62.875000
v 47.250000 0.000000 59.875000
v 47.250000 0.200000 50.125000
v 47.250000 0.200000 59.875000
v 47.250000 0.200000 47.125000
v 47.250000 0.200000 62.875000
v 4.875000 0.200000 47.125000
v 4.875000 0.000000 0.000000
v 4.875000 0.200000 62.875000
v 4.875000 0.200000 0.000000
v 4.875000 0.000000 47.125000
v 7.875000 0.200000 0.000000
v 4.875000 0.000000 62.875000
v 4.875000 0.200000 59.875000
v 4.875000 0.200000 50.125000
v 7.875000 0.200000 59.875000
v 7.875000 0.200000 47.125000
v 4.875000 0.000000 59.875000
v 4.875000 0.000000 50.125000
v 7.875000 0.200000 50.125000
v -4.875000 0.000000 -87.125000
v -4.875000 0.200000 -87.125000
v -7.875000 0.000000 -59.875000
v -7.875000 0.200000 -87.125000
v -7.875000 0.000000 -50.125000
v -47.250000 0.000000 -50.125000
v -7.875000 0.200000 -62.875000
v -47.250000 0.000000 -59.875000
v -47.250000 0.200000 -59.875000
v -47.250000 0.200000 -47.125000
v -47.250000 0.200000 -62.875000
v -4.875000 0.200000 -47.125000
v -4.875000 0.200000 -62.875000
v -4.875000 0.000000 -47.125000
v -4.875000 0.000000 -62.875000
v -4.875000 0.200000 -59.875000
v -4.875000 0.200000 -50.125000
v -7.875000 0.200000 -59.875000
v -7.875000 0.200000 -47.125000
v -4.875000 0.000000 -59.875000
v -4.875000 0.000000 -50.125000
v -7.875000 0.200000 -50.125000
v -47.250000 0.200000 -50.125000
v 4.875000 0.000000 -87.125000
v 7.875000 0.200000 -50.125000
v 4.875000 0.200000 -87.125000
v 7.875000 0.000000 -59.875000
v 7.875000 0.200000 -87.125000
v 7.875000 0.000000 -50.125000
v 47.250000 0.000000 -50.125000
v 7.875000 0.200000 -62.875000
v 47.250000 0.000000 -59.875000
v 47.250000 0.200000 -50.125000
v 47.250000 0.200000 -59.875000
v 47.250000 0.200000 -47.125000
v 47.250000 0.200000 -62.875000
v 4.875000 0.200000 -47.125000
v 4.875000 0.200000 -62.875000
v 4.875000 0.000000 -47.125000
v 4.875000 0.000000 -62.875000
v 4.875000 0.200000 -59.875000
v 4.875000 0.200000 -50.125000
v 7.875000 0.200000 -59.875000
v 7.875000 0.200000 -47.125000
v 4.875000 0.000000 -59.875000
v 4.875000 0.000000 -50.125000
vn -0.0000 1.0000 -0.0000
vn 1.0000 -0.0000 -0.0000
vn -0.0000 -0.0000 -1.0000
vn -0.0000 -0.0000 1.0000
vn -1.0000 -0.0000 -0.0000
vt 0.907159 0.424392
vt 0.907159 0.303224
vt 0.922149 0.303224
vt 0.922149 0.424392
vt 0.501118 0.037149
vt 0.516108 0.037149
vt 0.516108 0.038148
vt 0.501118 0.038148
vt 0.906160 0.424392
vt 0.906160 0.303224
vt 0.212339 0.472023
vt 0.212339 0.527977
vt 0.156384 0.527977
vt 0.156384 0.472023
vt 0.229555 0.472023
vt 0.500000 0.472023
vt 0.500000 0.527977
vt 0.229555 0.527977
vt 0.466990 0.704945
vt 0.465990 0.704945
vt 0.465990 0.689955
vt 0.466990 0.689955
vt 0.751575 0.038148
vt 0.751575 0.053138
vt 0.516108 0.053138
vt 0.212339 0.771162
vt 0.156384 0.771162
vt 0.156384 0.545194
vt 0.212339 0.545194
vt 0.751575 0.037149
vt 0.500119 0.249881
vt 0.500119 0.053138
vt 0.501118 0.053138
vt 0.501118 0.249881
vt 0.139168 0.472023
vt 0.139168 0.527977
vt 0.500119 0.038148
vt 1.000000 0.472023
vt 1.000000 0.527977
vt 0.860832 0.527977
vt 0.860832 0.472023
vt 0.466990 0.901688
vt 0.465990 0.901688
vt 0.516108 0.249881
vt 0.451001 0.901688
vt 0.451001 0.704945
vt 0.451001 0.689955
vt 0.451000 0.688956
vt 0.465990 0.688956
vt 0.602320 0.688956
vt 0.617310 0.688956
vt 0.617310 0.810125
vt 0.602320 0.810125
vt 0.254268 0.374881
vt 0.254268 0.373882
vt 0.269258 0.373882
vt 0.269258 0.374881
vt 0.601320 0.688956
vt 0.601320 0.810125
vt 0.617310 0.826114
vt 0.602320 0.826114
vt 0.602320 0.825115
vt 0.617310 0.825115
vt 0.269258 0.358892
vt 0.504726 0.358892
vt 0.504726 0.373882
vt 0.212339 0.228838
vt 0.212339 0.454806
vt 0.156384 0.454806
vt 0.156384 0.228838
vt 0.504726 0.374881
vt 0.253269 0.162149
vt 0.254268 0.162149
vt 0.254268 0.358892
vt 0.253269 0.358892
vt 0.253269 0.373882
vt 0.501107 0.885699
vt 0.501107 0.688956
vt 0.502106 0.688956
vt 0.502106 0.885699
vt 0.269258 0.162149
vt 0.517096 0.688956
vt 0.517096 0.885699
vt 0.601320 0.825115
vt 0.652426 0.688956
vt 0.667416 0.688956
vt 0.667416 0.810125
vt 0.652426 0.810125
vt 1.002032 0.037149
vt 1.002032 0.038148
vt 0.987042 0.038148
vt 0.987042 0.037149
vt 0.651427 0.688956
vt 0.651427 0.810125
vt 0.787661 0.472023
vt 0.843616 0.472023
vt 0.843616 0.527977
vt 0.787661 0.527977
vt 0.770445 0.472023
vt 0.770445 0.527977
vt 0.667416 0.826114
vt 0.652426 0.826114
vt 0.652426 0.825115
vt 0.667416 0.825115
vt 0.987042 0.053138
vt 0.787661 0.771162
vt 0.787661 0.545194
vt 0.843616 0.545194
vt 0.843616 0.771162
vt 1.003031 0.249881
vt 1.002032 0.249881
vt 1.002032 0.053138
vt 1.003031 0.053138
vt 1.003031 0.038148
vt 0.567203 0.688956
vt 0.567203 0.885699
vt 0.566204 0.885699
vt 0.566204 0.688956
vt 0.987042 0.249881
vt 0.551214 0.885699
vt 0.551214 0.688956
vt 0.651427 0.825115
vt 0.907159 0.269106
vt 0.907159 0.147937
vt 0.922149 0.147937
vt 0.922149 0.269106
vt 0.755183 0.374881
vt 0.740193 0.374881
vt 0.740193 0.373882
vt 0.755183 0.373882
vt 0.906160 0.269106
vt 0.906160 0.147937
vt 0.400894 0.885699
vt 0.401893 0.885699
vt 0.401893 0.900689
vt 0.400894 0.900689
vt 0.740193 0.358892
vt 0.787661 0.228838
vt 0.843616 0.228838
vt 0.843616 0.454806
vt 0.787661 0.454806
vt 0.756182 0.162149
vt 0.756182 0.358892
vt 0.755183 0.358892
vt 0.755183 0.162149
vt 0.756182 0.373882
vt 0.400894 0.688956
vt 0.401893 0.688956
vt 0.740193 0.162149
vt 0.416883 0.688956
vt 0.416883 0.885699
vt 0.416883 0.900689
vt 0.416883 0.901688
vt 0.401893 0.901688
vt 0.000000 0.472023
vt 0.000000 0.527977
s 0
usemtl road
f 3/1/1 15/2/1 8/3/1 5/4/1
f 25/5/2 17/6/2 13/7/2 21/8/2
f 1/9/2 19/10/2 15/2/2 3/1/2
f 51/11/1 25/12/1 24/13/1 50/14/1
f 43/15/1 40/16/1 14/17/1 17/18/1
f 4/19/3 22/20/3 20/21/3 24/22/3
f 13/7/1 16/23/1 18/24/1 23/25/1
f 7/26/1 9/27/1 4/28/1 6/29/1
f 17/6/2 14/30/2 16/23/2 13/7/2
f 7/31/4 6/32/4 2/33/4 26/34/4
f 45/35/1 50/14/1 24/13/1 19/36/1
f 6/29/1 4/28/1 24/13/1 25/12/1
f 6/32/4 25/37/4 21/8/4 2/33/4
f 76/38/1 53/39/1 67/40/1 92/41/1
f 9/42/3 10/43/3 22/20/3 4/19/3
f 26/34/1 2/33/1 23/25/1 11/44/1
f 10/43/1 12/45/1 8/46/1 22/20/1
f 51/11/1 43/15/1 17/18/1 25/12/1
f 22/20/1 8/46/1 15/47/1 20/21/1
f 19/48/2 24/49/2 20/21/2 15/47/2
f 2/33/1 21/8/1 13/7/1 23/25/1
f 28/50/1 30/51/1 33/52/1 41/53/1
f 51/54/5 47/55/5 39/56/5 43/57/5
f 27/58/5 28/50/5 41/53/5 45/59/5
f 29/60/3 50/61/3 46/62/3 48/63/3
f 39/56/1 49/64/1 44/65/1 42/66/1
f 32/67/1 31/68/1 29/69/1 34/70/1
f 43/57/5 39/56/5 42/66/5 40/71/5
f 32/72/4 35/73/4 52/74/4 31/75/4
f 31/68/1 51/11/1 50/14/1 29/69/1
f 31/75/4 52/74/4 47/55/4 51/76/4
f 34/77/3 29/78/3 48/79/3 36/80/3
f 35/73/1 37/81/1 49/64/1 52/74/1
f 36/80/1 48/79/1 33/82/1 38/83/1
f 48/63/1 46/62/1 41/53/1 33/52/1
f 45/59/5 41/53/5 46/62/5 50/84/5
f 52/74/1 49/64/1 39/56/1 47/55/1
f 54/85/1 56/86/1 59/87/1 65/88/1
f 73/89/2 69/90/2 64/91/2 66/92/2
f 53/93/2 54/85/2 65/88/2 67/94/2
f 98/95/1 97/96/1 72/97/1 73/98/1
f 91/99/1 66/100/1 14/17/1 40/16/1
f 55/101/4 72/102/4 68/103/4 70/104/4
f 64/91/1 71/105/1 18/24/1 16/23/1
f 58/106/1 57/107/1 55/108/1 60/109/1
f 66/92/2 64/91/2 16/23/2 14/30/2
f 58/110/3 75/111/3 74/112/3 57/113/3
f 92/41/1 67/40/1 72/97/1 97/96/1
f 57/107/1 73/98/1 72/97/1 55/108/1
f 57/113/3 74/112/3 69/90/3 73/114/3
f 60/115/4 55/116/4 70/117/4 61/118/4
f 75/111/1 62/119/1 71/105/1 74/112/1
f 61/118/1 70/117/1 59/120/1 63/121/1
f 98/95/1 73/98/1 66/100/1 91/99/1
f 70/104/1 68/103/1 65/88/1 59/87/1
f 67/94/2 65/88/2 68/103/2 72/122/2
f 74/112/1 71/105/1 64/91/1 69/90/1
f 78/123/1 90/124/1 83/125/1 80/126/1
f 98/127/5 91/128/5 89/129/5 94/130/5
f 76/131/5 92/132/5 90/124/5 78/123/5
f 79/133/4 95/134/4 93/135/4 97/136/4
f 89/129/1 42/66/1 44/65/1 96/137/1
f 82/138/1 84/139/1 79/140/1 81/141/1
f 91/128/5 40/71/5 42/66/5 89/129/5
f 82/142/3 81/143/3 77/144/3 85/145/3
f 81/141/1 79/140/1 97/96/1 98/95/1
f 81/143/3 98/146/3 94/130/3 77/144/3
f 84/147/4 86/148/4 95/134/4 79/133/4
f 85/145/1 77/144/1 96/137/1 87/149/1
f 86/148/1 88/150/1 83/151/1 95/134/1
f 95/134/1 83/151/1 90/152/1 93/135/1
f 92/153/5 97/154/5 93/135/5 90/152/5
f 77/144/1 94/130/1 89/129/1 96/137/1
f 27/155/1 45/35/1 19/36/1 1/156/1
